<?xml version="1.0" encoding="utf-8"?>
<!-- Generator: Adobe Illustrator 16.0.4, SVG Export Plug-In . SVG Version: 6.00 Build 0)  -->
<!DOCTYPE svg PUBLIC "-//W3C//DTD SVG 1.1//EN" "http://www.w3.org/Graphics/SVG/1.1/DTD/svg11.dtd">
<svg version="1.1" id="Layer_1" xmlns="http://www.w3.org/2000/svg" xmlns:xlink="http://www.w3.org/1999/xlink" x="0px" y="0px"
	 width="348px" height="40.277px" viewBox="0 0 348 40.277" enable-background="new 0 0 348 40.277" xml:space="preserve">
<g>
	<g>
		
			<linearGradient id="SVGID_1_" gradientUnits="userSpaceOnUse" x1="0" y1="20.4666" x2="40" y2="20.4666" gradientTransform="matrix(1 0 0 -1 0 41.2778)">
			<stop  offset="0" style="stop-color:#FBB03B"/>
			<stop  offset="0.1696" style="stop-color:#FD9B68"/>
			<stop  offset="0.3334" style="stop-color:#FE898D"/>
			<stop  offset="0.4655" style="stop-color:#FF7FA4"/>
			<stop  offset="0.5495" style="stop-color:#FF7BAC"/>
			<stop  offset="0.6028" style="stop-color:#FF73A1"/>
			<stop  offset="0.6979" style="stop-color:#FF5D82"/>
			<stop  offset="0.8237" style="stop-color:#FF3A50"/>
			<stop  offset="0.9738" style="stop-color:#FF090D"/>
			<stop  offset="1" style="stop-color:#FF0000"/>
		</linearGradient>
		<path fill="url(#SVGID_1_)" d="M17.279,1.344L38.017,5.49C39.246,5.76,40,6.83,40,8.088v17.546c0,1.25-0.386,1.984-1.173,2.813
			L26.558,39.895c-0.424,0.255-0.841,0.384-1.32,0.384c-0.455,0-1.688-0.115-2.097-0.347C22.3,39.456,22,38.564,22,37.597v-19.04
			l-3-0.532v3.21c0,0.747,0.004,1.787-0.69,2.329L5.473,35.09c-0.782,0.723-3.256,0.915-4.232,0.487C0.263,35.151,0,34.188,0,33.121
			V12.157c0-0.796,0.129-1.551,0.741-2.06c0.611-0.51,1.291-0.722,2.073-0.579L13,11.592V4C13.667,1.344,15.167,1.344,17.279,1.344z
			 M19,12.574l6.188,1.021C26.463,13.829,28,14.938,28,16.232v14.527l6-6.123V10.242L19,7.26V12.574z M6,15.373v11.37l7-6.681
			v-3.019L6,15.373z"/>
	</g>
</g>
<polygon fill="#FF5777" points="19,12.574 13,11.592 13,17.043 19,18.024 "/>
<g enable-background="new    ">
	<path fill="#FF0000" d="M68.796,26.022h-4.809V15.726c0-1.271-0.226-2.226-0.678-2.861c-0.452-0.636-1.172-0.954-2.16-0.954
		c-1.346,0-2.318,0.449-2.917,1.348c-0.599,0.899-0.899,2.389-0.899,4.471v8.293h-4.809V8.395h3.673l0.646,2.254h0.268
		c0.536-0.852,1.274-1.495,2.215-1.932c0.94-0.436,2.01-0.654,3.208-0.654c2.05,0,3.605,0.555,4.667,1.664s1.593,2.709,1.593,4.801
		V26.022z"/>
</g>
<g enable-background="new    ">
	<path fill="#FF0000" d="M80.679,26.337c-5.487,0-8.23-3.012-8.23-9.034c0-2.996,0.746-5.285,2.239-6.867s3.631-2.373,6.417-2.373
		c2.039,0,3.868,0.4,5.487,1.198l-1.419,3.722c-0.757-0.305-1.461-0.555-2.113-0.749s-1.303-0.292-1.955-0.292
		c-2.501,0-3.752,1.776-3.752,5.329c0,3.448,1.251,5.172,3.752,5.172c0.925,0,1.782-0.123,2.57-0.37
		c0.788-0.247,1.577-0.634,2.365-1.159v4.115c-0.778,0.494-1.563,0.836-2.357,1.024C82.889,26.242,81.888,26.337,80.679,26.337z"/>
</g>
<g enable-background="new    ">
	<path fill="#FF0000" d="M101.092,26.022l-0.93-2.396h-0.126c-0.809,1.02-1.642,1.727-2.499,2.12
		c-0.856,0.395-1.974,0.592-3.35,0.592c-1.693,0-3.025-0.483-3.997-1.45c-0.973-0.968-1.458-2.345-1.458-4.132
		c0-1.87,0.654-3.25,1.963-4.139c1.309-0.888,3.282-1.379,5.92-1.474l3.059-0.095v-0.772c0-1.787-0.915-2.681-2.744-2.681
		c-1.409,0-3.064,0.426-4.966,1.277l-1.593-3.248c2.029-1.062,4.278-1.593,6.749-1.593c2.365,0,4.178,0.516,5.439,1.545
		c1.261,1.03,1.892,2.597,1.892,4.699v11.746H101.092z M99.673,17.855l-1.861,0.062c-1.398,0.042-2.438,0.295-3.122,0.757
		c-0.684,0.463-1.025,1.167-1.025,2.113c0,1.355,0.778,2.033,2.333,2.033c1.114,0,2.005-0.32,2.672-0.961
		c0.667-0.642,1.001-1.493,1.001-2.555V17.855z"/>
</g>
<g enable-background="new    ">
	<path fill="#FF0000" d="M119.014,8.063c0.651,0,1.193,0.048,1.624,0.143l-0.363,4.509c-0.389-0.104-0.862-0.157-1.419-0.157
		c-1.535,0-2.73,0.395-3.587,1.183c-0.857,0.788-1.285,1.892-1.285,3.311v8.972h-4.809V8.395h3.642l0.709,2.964h0.236
		c0.546-0.988,1.285-1.784,2.215-2.389S117.92,8.063,119.014,8.063z"/>
</g>
<g enable-background="new    ">
	<path fill="#FF0000" d="M139.632,17.176c0,2.87-0.757,5.114-2.271,6.733c-1.514,1.618-3.621,2.428-6.323,2.428
		c-1.692,0-3.185-0.371-4.478-1.111c-1.293-0.741-2.286-1.806-2.98-3.193s-1.041-3.006-1.041-4.856c0-2.88,0.751-5.118,2.254-6.716
		c1.503-1.598,3.616-2.397,6.338-2.397c1.692,0,3.185,0.368,4.478,1.104c1.293,0.735,2.286,1.792,2.98,3.169
		C139.285,13.713,139.632,15.326,139.632,17.176z M127.444,17.176c0,1.745,0.286,3.064,0.859,3.958
		c0.573,0.894,1.506,1.34,2.799,1.34c1.282,0,2.205-0.443,2.767-1.332c0.562-0.888,0.843-2.21,0.843-3.966
		c0-1.744-0.284-3.053-0.852-3.926c-0.567-0.872-1.498-1.309-2.791-1.309c-1.283,0-2.208,0.434-2.775,1.301
		C127.728,14.11,127.444,15.421,127.444,17.176z"/>
</g>
<g enable-background="new    ">
</g>
<g enable-background="new    ">
	<path fill="#FF0000" d="M163.839,20.787c0,1.808-0.628,3.185-1.884,4.131c-1.256,0.946-3.135,1.419-5.637,1.419
		c-1.283,0-2.376-0.087-3.28-0.26c-0.904-0.174-1.75-0.429-2.539-0.766v-3.973c0.894,0.42,1.9,0.772,3.02,1.057
		c1.12,0.283,2.105,0.425,2.957,0.425c1.745,0,2.617-0.504,2.617-1.513c0-0.379-0.116-0.687-0.347-0.923
		c-0.231-0.236-0.63-0.505-1.198-0.804c-0.567-0.3-1.324-0.649-2.271-1.049c-1.356-0.567-2.352-1.093-2.988-1.577
		c-0.636-0.483-1.098-1.037-1.387-1.663c-0.29-0.625-0.434-1.396-0.434-2.31c0-1.566,0.607-2.777,1.821-3.635
		c1.214-0.856,2.935-1.285,5.164-1.285c2.123,0,4.188,0.463,6.196,1.388l-1.451,3.469c-0.883-0.378-1.708-0.688-2.476-0.93
		c-0.767-0.242-1.55-0.363-2.349-0.363c-1.419,0-2.128,0.384-2.128,1.151c0,0.431,0.229,0.804,0.686,1.119
		c0.458,0.315,1.458,0.783,3.004,1.403c1.377,0.558,2.386,1.078,3.027,1.562c0.641,0.483,1.114,1.04,1.419,1.671
		C163.687,19.163,163.839,19.914,163.839,20.787z"/>
</g>
<g enable-background="new    ">
	<path fill="#FF0000" d="M183.385,17.176c0,2.87-0.757,5.114-2.271,6.733c-1.514,1.618-3.621,2.428-6.323,2.428
		c-1.692,0-3.184-0.371-4.477-1.111c-1.293-0.741-2.286-1.806-2.98-3.193s-1.041-3.006-1.041-4.856c0-2.88,0.751-5.118,2.254-6.716
		c1.503-1.598,3.616-2.397,6.339-2.397c1.691,0,3.185,0.368,4.478,1.104c1.293,0.735,2.286,1.792,2.979,3.169
		S183.385,15.326,183.385,17.176z M171.197,17.176c0,1.745,0.286,3.064,0.859,3.958c0.573,0.894,1.506,1.34,2.799,1.34
		c1.281,0,2.204-0.443,2.767-1.332c0.562-0.888,0.843-2.21,0.843-3.966c0-1.744-0.283-3.053-0.852-3.926
		c-0.566-0.872-1.497-1.309-2.79-1.309c-1.283,0-2.208,0.434-2.775,1.301C171.48,14.11,171.197,15.421,171.197,17.176z"/>
</g>
<g enable-background="new    ">
	<path fill="#FF0000" d="M196.876,12.005h-4.163v14.017h-4.809V12.005h-2.648V9.687l2.648-1.292V7.102
		c0-2.008,0.494-3.475,1.482-4.399s2.57-1.388,4.746-1.388c1.66,0,3.137,0.247,4.43,0.741l-1.229,3.532
		c-0.968-0.305-1.861-0.458-2.682-0.458c-0.683,0-1.177,0.203-1.481,0.607c-0.306,0.404-0.458,0.923-0.458,1.553v1.104h4.163V12.005
		z"/>
</g>
<g enable-background="new    ">
	<path fill="#FF0000" d="M206.835,22.506c0.841,0,1.851-0.185,3.027-0.553v3.579c-1.198,0.536-2.67,0.805-4.415,0.805
		c-1.924,0-3.324-0.486-4.201-1.459c-0.878-0.972-1.316-2.43-1.316-4.375v-8.498h-2.303V9.971l2.649-1.608l1.388-3.721h3.074v3.753
		h4.936v3.61h-4.936v8.498c0,0.684,0.191,1.188,0.575,1.514C205.697,22.343,206.205,22.506,206.835,22.506z"/>
</g>
<g enable-background="new    ">
	<path fill="#FF0000" d="M227.689,26.022l-1.355-6.165l-1.829-7.789h-0.11l-3.217,13.954h-5.172l-5.014-17.627h4.793l2.035,7.804
		c0.325,1.398,0.656,3.327,0.992,5.787h0.096c0.041-0.799,0.225-2.065,0.551-3.8l0.253-1.341l2.176-8.45h5.298l2.064,8.45
		c0.043,0.231,0.108,0.573,0.197,1.025c0.09,0.452,0.176,0.933,0.261,1.442c0.084,0.51,0.16,1.009,0.229,1.498
		c0.068,0.488,0.108,0.881,0.118,1.175h0.095c0.095-0.757,0.263-1.795,0.505-3.114c0.241-1.319,0.414-2.21,0.52-2.673l2.113-7.804
		h4.715l-5.078,17.627H227.689z"/>
</g>
<g enable-background="new    ">
	<path fill="#FF0000" d="M251.808,26.022l-0.931-2.396h-0.126c-0.81,1.02-1.642,1.727-2.499,2.12
		c-0.856,0.395-1.974,0.592-3.35,0.592c-1.693,0-3.025-0.483-3.998-1.45c-0.973-0.968-1.458-2.345-1.458-4.132
		c0-1.87,0.654-3.25,1.963-4.139c1.309-0.888,3.282-1.379,5.921-1.474l3.059-0.095v-0.772c0-1.787-0.914-2.681-2.744-2.681
		c-1.408,0-3.063,0.426-4.966,1.277l-1.593-3.248c2.029-1.062,4.278-1.593,6.748-1.593c2.365,0,4.179,0.516,5.439,1.545
		c1.262,1.03,1.893,2.597,1.893,4.699v11.746H251.808z M250.389,17.855l-1.861,0.062c-1.397,0.042-2.438,0.295-3.121,0.757
		c-0.684,0.463-1.025,1.167-1.025,2.113c0,1.355,0.778,2.033,2.334,2.033c1.114,0,2.005-0.32,2.672-0.961
		c0.668-0.642,1.002-1.493,1.002-2.555V17.855z"/>
</g>
<g enable-background="new    ">
	<path fill="#FF0000" d="M269.729,8.063c0.651,0,1.192,0.048,1.624,0.143l-0.363,4.509c-0.389-0.104-0.861-0.157-1.418-0.157
		c-1.535,0-2.73,0.395-3.588,1.183c-0.856,0.788-1.285,1.892-1.285,3.311v8.972h-4.809V8.395h3.643l0.709,2.964h0.236
		c0.547-0.988,1.285-1.784,2.216-2.389S268.637,8.063,269.729,8.063z"/>
</g>
<g enable-background="new    ">
	<path fill="#FF0000" d="M282.307,26.337c-2.839,0-5.057-0.783-6.654-2.35c-1.598-1.565-2.396-3.784-2.396-6.653
		c0-2.954,0.738-5.237,2.215-6.851s3.519-2.421,6.126-2.421c2.491,0,4.431,0.71,5.817,2.129c1.388,1.419,2.082,3.38,2.082,5.881
		v2.334h-11.368c0.052,1.366,0.457,2.434,1.214,3.2c0.757,0.768,1.818,1.151,3.186,1.151c1.061,0,2.064-0.11,3.011-0.331
		s1.935-0.573,2.964-1.057v3.721c-0.841,0.421-1.739,0.733-2.695,0.938C284.85,26.235,283.683,26.337,282.307,26.337z
		 M281.628,11.485c-1.02,0-1.818,0.323-2.396,0.97s-0.909,1.563-0.993,2.751h6.748c-0.021-1.188-0.331-2.104-0.93-2.751
		C283.457,11.808,282.647,11.485,281.628,11.485z"/>
</g>
<g enable-background="new    ">
</g>
<g enable-background="new    ">
	<path fill="#F7931E" d="M301.469,4.121c0-1.009,0.33-1.514,0.992-1.514c0.326,0,0.581,0.132,0.766,0.395
		c0.184,0.263,0.275,0.636,0.275,1.119c0,0.473-0.092,0.847-0.275,1.119c-0.185,0.273-0.439,0.41-0.766,0.41
		C301.799,5.651,301.469,5.141,301.469,4.121z M303.25,26.022h-1.561V8.883h1.561V26.022z"/>
</g>
<g enable-background="new    ">
	<path fill="#F7931E" d="M320.715,26.022V14.906c0-1.725-0.363-2.978-1.088-3.761c-0.726-0.783-1.851-1.175-3.375-1.175
		c-2.049,0-3.55,0.518-4.501,1.553c-0.952,1.036-1.427,2.715-1.427,5.038v9.46h-1.561V8.883h1.324l0.299,2.35h0.096
		c1.113-1.787,3.095-2.681,5.943-2.681c3.889,0,5.834,2.087,5.834,6.26v11.21H320.715z"/>
</g>
<g enable-background="new    ">
	<path fill="#F7931E" d="M334.426,26.337c-2.449,0-4.367-0.772-5.754-2.317c-1.389-1.546-2.082-3.7-2.082-6.465
		c0-2.838,0.721-5.048,2.16-6.63s3.411-2.373,5.912-2.373c1.482,0,2.902,0.258,4.258,0.772l-0.426,1.388
		c-1.482-0.494-2.77-0.741-3.863-0.741c-2.102,0-3.694,0.649-4.777,1.947c-1.082,1.298-1.623,3.167-1.623,5.605
		c0,2.312,0.541,4.123,1.623,5.432c1.083,1.309,2.597,1.963,4.541,1.963c1.556,0,3.001-0.278,4.336-0.836v1.45
		C337.637,26.069,336.203,26.337,334.426,26.337z"/>
</g>
<g enable-background="new    ">
	<path fill="#F7931E" d="M342.383,24.792c0-1.03,0.421-1.546,1.262-1.546c0.861,0,1.293,0.516,1.293,1.546s-0.432,1.545-1.293,1.545
		C342.804,26.337,342.383,25.823,342.383,24.792z"/>
</g>
</svg>
